<?xml version="1.0" encoding="UTF-8"?>
<svg id="Layer_1" data-name="Layer 1" xmlns="http://www.w3.org/2000/svg" viewBox="0 0 50 50">
  <defs>
    <style>
      .cls-1 {
        fill: #fff;
      }
    </style>
  </defs>
  <circle class="cls-1" cx="25" cy="25" r="16.98"/>
  <g id="BTAXOp.tif">
    <path d="M5.03,26.18c-.04-.7-.04-1.64,0-2.34C5.93,8.48,23.43-.27,36.25,8.46c11.38,7.75,11.72,24.41.64,32.62-12.74,9.44-30.95.8-31.87-14.9ZM24.54,16.59c3.13.03,5.46-3.36,5.08-6.29-.73.22-1.47.43-2.15.79-1.98,1.07-2.95,3.3-2.93,5.5ZM35.5,29.17c-1.6-.53-2.9-2.23-3.29-3.84-.67-2.74.44-4.92,2.55-6.6-1.3-1.79-3.26-2.72-5.5-2.54-1.83.15-3.2,1.29-5.12.93-2.45-.46-4.17-1.55-6.69-.17-6.02,3.31-3.33,14.21.89,18.06,2.82,2.57,4.45-.15,7.38.12,2.05.19,3.37,1.73,5.55.47,1.97-1.15,3.55-4.32,4.24-6.42Z"/>
  </g>
</svg>