<?xml version="1.0" encoding="UTF-8"?>
<svg id="Layer_1" data-name="Layer 1" xmlns="http://www.w3.org/2000/svg" viewBox="0 0 256 256">
  <defs>
    <style>
      .cls-1 {
        stroke-width: 1.06px;
      }

      .cls-1, .cls-2, .cls-3, .cls-4, .cls-5, .cls-6, .cls-7, .cls-8, .cls-9, .cls-10, .cls-11, .cls-12, .cls-13, .cls-14, .cls-15, .cls-16, .cls-17, .cls-18, .cls-19, .cls-20, .cls-21, .cls-22 {
        stroke: #010101;
        stroke-linecap: round;
      }

      .cls-1, .cls-2, .cls-3, .cls-4, .cls-5, .cls-6, .cls-7, .cls-16, .cls-17, .cls-18, .cls-19, .cls-20, .cls-22 {
        fill: none;
      }

      .cls-1, .cls-2, .cls-3, .cls-4, .cls-6, .cls-7, .cls-8, .cls-9, .cls-10, .cls-11, .cls-12, .cls-13, .cls-14, .cls-15, .cls-16, .cls-17, .cls-18, .cls-19, .cls-20 {
        stroke-miterlimit: 10;
      }

      .cls-2 {
        stroke-width: 1.27px;
      }

      .cls-3 {
        stroke-width: 1.08px;
      }

      .cls-4, .cls-5, .cls-21 {
        stroke-width: 1.14px;
      }

      .cls-23 {
        fill: #4f76ba;
        font-family: OCRAExtended, OCRAExtended;
        font-size: 30.5px;
      }

      .cls-24, .cls-25, .cls-8, .cls-9, .cls-10, .cls-11, .cls-12, .cls-13, .cls-14, .cls-15, .cls-21 {
        fill: #010101;
      }

      .cls-26 {
        fill: #f1f4ee;
      }

      .cls-5, .cls-21, .cls-22 {
        stroke-linejoin: round;
      }

      .cls-27 {
        fill: #4b4ea1;
      }

      .cls-25 {
        font-family: ArialRoundedMTBold, 'Arial Rounded MT Bold';
        font-size: 9.86px;
      }

      .cls-6 {
        stroke-width: 2.28px;
      }

      .cls-7 {
        stroke-width: 2.17px;
      }

      .cls-28 {
        fill: #41b649;
      }

      .cls-8, .cls-19 {
        stroke-width: 3.41px;
      }

      .cls-9 {
        stroke-width: 2.66px;
      }

      .cls-10, .cls-17 {
        stroke-width: 2.47px;
      }

      .cls-11 {
        stroke-width: 2.5px;
      }

      .cls-29 {
        fill: #fff;
      }

      .cls-30 {
        letter-spacing: 0em;
      }

      .cls-31 {
        fill: #3867b1;
      }

      .cls-12 {
        stroke-width: .88px;
      }

      .cls-13 {
        stroke-width: 1.08px;
      }

      .cls-14 {
        stroke-width: 2.17px;
      }

      .cls-15 {
        stroke-width: 2.11px;
      }

      .cls-16 {
        stroke-width: 3.32px;
      }

      .cls-32 {
        fill: #cc2027;
      }

      .cls-18 {
        stroke-width: 4.55px;
      }

      .cls-20 {
        stroke-width: 3.43px;
      }

      .cls-33 {
        fill: #ed202b;
      }

      .cls-34 {
        letter-spacing: -.02em;
      }

      .cls-35 {
        letter-spacing: -.01em;
      }

      .cls-36 {
        letter-spacing: -.01em;
      }

      .cls-37 {
        letter-spacing: -.01em;
      }

      .cls-22 {
        stroke-width: 2.77px;
      }

      .cls-38 {
        fill: #63bc46;
      }
    </style>
  </defs>
  <ellipse class="cls-26" cx="128" cy="128" rx="120.77" ry="121.8"/>
  <text class="cls-23" transform="translate(34.72 199.31)"><tspan x="0" y="0">NEU</tspan><tspan class="cls-30" x="54.81" y="0">R</tspan><tspan x="71.31" y="0">O</tspan><tspan class="cls-30" x="92.32" y="0">R</tspan><tspan class="cls-35" x="108.82" y="0">O</tspan><tspan x="129.41" y="0">ADS</tspan></text>
  <line class="cls-14" x1="167.91" y1="213.79" x2="190.62" y2="213.79"/>
  <path class="cls-19" d="M184.04,99.33c.35,4.24,1.56,24.36-12.85,42.02-2.28,2.8-17.87,21.25-43.75,21.01-28.85-.27-44.83-23.52-46.18-25.56"/>
  <ellipse class="cls-20" cx="192.06" cy="67.85" rx="4.86" ry="4.9"/>
  <path class="cls-20" d="M162.53,61.04c2.68-7.27,9.95-11.57,17.04-10.4,6.09,1.01,11.09,5.9,12.49,12.31"/>
  <path class="cls-16" d="M190.06,72.75c-.46,2.49-1.83,8.16-6.35,13.07-2.23,2.42-6.32,6.78-11.81,6.54-5.59-.24-10.82-5.19-13.07-12.22"/>
  <path class="cls-20" d="M155.19,62.7c2.73-.43,6.65-.97,11.42-1.3,9.34-.65,10.79.25,11.44.77,4.27,3.36,4.5,12.79.19,16.54-1.65,1.44-4.53,1.54-10.3,1.73-6.38.22-9.62.28-12.2-1.73-3.52-2.75-3.98-7.03-4-7.31-.43-4.98,3.01-8.29,3.45-8.7Z"/>
  <path class="cls-20" d="M178.95,62.2c5.29.28,9.18,4.44,9.24,8.6.07,4.84-5.04,9.67-11.28,8.69"/>
  <ellipse class="cls-7" cx="148.82" cy="88.84" rx=".97" ry=".97"/>
  <g>
    <path class="cls-24" d="M160.63,100.73c-2.05.76-2.66,1.37-3.41,3.44-.75-2.07-1.36-2.68-3.41-3.44,2.05-.76,2.66-1.37,3.41-3.44.75,2.07,1.36,2.68,3.41,3.44Z"/>
    <path class="cls-2" d="M160.63,100.73c-2.05.76-2.66,1.37-3.41,3.44-.75-2.07-1.36-2.68-3.41-3.44,2.05-.76,2.66-1.37,3.41-3.44.75,2.07,1.36,2.68,3.41,3.44Z"/>
  </g>
  <g>
    <path class="cls-24" d="M170.77,126.73c-1.72.64-2.23,1.15-2.86,2.89-.63-1.74-1.14-2.25-2.86-2.89,1.72-.64,2.23-1.15,2.86-2.89.63,1.74,1.14,2.25,2.86,2.89Z"/>
    <path class="cls-1" d="M170.77,126.73c-1.72.64-2.23,1.15-2.86,2.89-.63-1.74-1.14-2.25-2.86-2.89,1.72-.64,2.23-1.15,2.86-2.89.63,1.74,1.14,2.25,2.86,2.89Z"/>
  </g>
  <line class="cls-8" x1="166.17" y1="101.95" x2="176.64" y2="101.95"/>
  <line class="cls-8" x1="166.17" y1="108.41" x2="176.64" y2="108.41"/>
  <line class="cls-8" x1="166.17" y1="114.87" x2="176.64" y2="114.87"/>
  <g>
    <path class="cls-24" d="M89.66,115.22c-1.75.65-2.27,1.17-2.91,2.93-.64-1.77-1.16-2.29-2.91-2.93,1.75-.65,2.27-1.17,2.91-2.93.64,1.77,1.16,2.29,2.91,2.93Z"/>
    <path class="cls-3" d="M89.66,115.22c-1.75.65-2.27,1.17-2.91,2.93-.64-1.77-1.16-2.29-2.91-2.93,1.75-.65,2.27-1.17,2.91-2.93.64,1.77,1.16,2.29,2.91,2.93Z"/>
  </g>
  <g>
    <path class="cls-24" d="M95.61,101.08c-1.75.65-2.27,1.17-2.91,2.93-.64-1.77-1.16-2.29-2.91-2.93,1.75-.65,2.27-1.17,2.91-2.93.64,1.77,1.16,2.29,2.91,2.93Z"/>
    <path class="cls-3" d="M95.61,101.08c-1.75.65-2.27,1.17-2.91,2.93-.64-1.77-1.16-2.29-2.91-2.93,1.75-.65,2.27-1.17,2.91-2.93.64,1.77,1.16,2.29,2.91,2.93Z"/>
  </g>
  <line class="cls-13" x1="70.14" y1="111.56" x2="60.93" y2="111.56"/>
  <line class="cls-13" x1="62.6" y1="115.43" x2="66.45" y2="115.43"/>
  <circle class="cls-12" cx="69.8" cy="115.38" r=".45"/>
  <ellipse class="cls-11" cx="87.87" cy="126.79" rx="1.27" ry="1.28"/>
  <g>
    <path class="cls-24" d="M156.74,50.38c-1.75.65-2.27,1.17-2.91,2.93-.64-1.77-1.16-2.29-2.91-2.93,1.75-.65,2.27-1.17,2.91-2.93.64,1.77,1.16,2.29,2.91,2.93Z"/>
    <path class="cls-3" d="M156.74,50.38c-1.75.65-2.27,1.17-2.91,2.93-.64-1.77-1.16-2.29-2.91-2.93,1.75-.65,2.27-1.17,2.91-2.93.64,1.77,1.16,2.29,2.91,2.93Z"/>
  </g>
  <path class="cls-31" d="M159.66,108.53c-.09-.09-.21-.15-.34-.15h-6.43c-.15,0-.27-.08-.36-.19-2.63-3.95-5.28-7.92-7.92-11.87-14.15-.14-19.08-.18-33.22-.3-3.04,4.37-6.06,8.73-9.1,13.1-.08.1-.2.18-.32.18-1.52.12-2.45-.1-4.49-.14-1.05-.02-1.59-.03-2.08.33-1.21.86-1.53,3.22-.56,4.3.15.16.29.27.43.34h2.4c.24,0,.44.2.44.44v15.91c0,.24.19.43.43.43h1.76c.24,0,.43.2.43.44v4.56c0,.24.2.43.44.43h9.33c.24,0,.43-.19.43-.43v-4.89c0-.24.2-.43.44-.43h29.28l4.19-4.22c-.11-.02-.24-.06-.34-.1-.11-.03-.22-.08-.34-.12-.11-.05-.22-.09-.32-.16-.1-.06-.2-.11-.3-.18-.45-.31-.83-.68-1.12-1.13-.07-.09-.12-.18-.17-.27-.22-.4-.39-.84-.47-1.3-.03-.23-.06-.46-.06-.7,0-2.26,1.81-4.08,4.04-4.08.24,0,.48.02.71.06.46.09.9.25,1.29.47.09.05.18.1.27.17.18.12.36.26.52.42.08.07.15.14.21.21.06.07.12.14.17.2.08.09.16.19.21.29.07.1.13.2.18.3.12.21.21.43.28.67.04.1.08.23.1.34l6.43-6.48v-.6c.1-.11.29-.27.55-.41.52-.26.94-.19,2.04-.25.6-.02.91-.03,1-.08,1.23-.61,1.08-3.86-.02-5.12ZM108.8,126.48c-2.23,0-4.04-1.83-4.04-4.08s1.81-4.08,4.04-4.08,4.04,1.82,4.04,4.08-1.81,4.08-4.04,4.08ZM136.39,122.4c-.13.26-.31.35-.5.35-1.55-.07-7.64-.01-15.79-.06-.45,0-.68-.54-.37-.87l1.29-1.34c.18-.18.43-.29.68-.29,4.16-.02,8.31-.05,12.47-.07.22,0,.45.08.63.23,1.08.93,1.81,1.63,1.6,2.06ZM146.36,109.59h-37.64c-.78,0-1.23-.92-.76-1.55,1.95-2.61,3.9-5.3,5.85-7.9,12.07.09,16.02.05,27.89.17,1.7,2.44,3.75,5.31,5.44,7.76.44.63-.01,1.51-.78,1.51Z"/>
  <path class="cls-27" d="M156.1,114.98v14.78c0,.24-.2.43-.44.43h-1.1c-.25,0-.44.19-.44.43v4.97c0,.24-.19.43-.43.43h-8.6c-.24,0-.44-.19-.44-.43v-4.56c0-.24-.19-.43-.43-.43h-3.62l4.19-4.22h.01c.12.03.25.06.37.07.18.03.36.05.55.05,2.24,0,4.04-1.83,4.04-4.08,0-.18-.01-.36-.04-.54-.02-.14-.04-.26-.07-.4l6.43-6.48Z"/>
  <path class="cls-29" d="M112.84,122.4c0,2.25-1.81,4.08-4.04,4.08s-4.04-1.83-4.04-4.08,1.81-4.08,4.04-4.08,4.04,1.82,4.04,4.08Z"/>
  <path class="cls-29" d="M136.39,122.4c-.13.26-.31.35-.5.35-1.55-.07-7.64-.01-15.79-.06-.45,0-.68-.54-.37-.87l1.29-1.34c.18-.18.43-.29.68-.29,4.16-.02,8.31-.05,12.47-.07.22,0,.45.08.63.23,1.08.93,1.81,1.63,1.6,2.06Z"/>
  <path class="cls-29" d="M146.36,109.59h-37.64c-.78,0-1.23-.92-.76-1.55,1.95-2.61,3.9-5.3,5.85-7.9,12.07.09,16.02.05,27.89.17,1.7,2.44,3.75,5.31,5.44,7.76.44.63-.01,1.51-.78,1.51Z"/>
  <path class="cls-29" d="M149.78,122.4c0,2.25-1.8,4.08-4.04,4.08-.19,0-.37-.01-.55-.05-.12-.01-.25-.03-.37-.07h-.01c-.11-.03-.22-.06-.34-.1-.11-.03-.22-.08-.34-.12-.11-.05-.22-.1-.32-.16-.1-.06-.21-.12-.3-.18-.45-.31-.83-.68-1.12-1.13-.07-.09-.12-.18-.17-.27-.22-.4-.39-.84-.47-1.3-.03-.23-.06-.46-.06-.7,0-2.26,1.81-4.08,4.04-4.08.25,0,.48.02.71.06.46.09.9.25,1.29.47.09.05.18.1.27.17.18.12.36.26.52.42.08.07.15.14.21.21.06.07.12.14.17.2.08.09.15.19.21.29.07.1.12.2.18.3.11.21.21.44.28.67.04.11.07.23.1.34.02.14.04.26.07.4.03.18.04.36.04.54Z"/>
  <path class="cls-6" d="M136.45,153.51c3.61-.96,8.31-2.58,13.39-5.43,5.22-2.93,9.14-6.21,11.88-8.87"/>
  <path class="cls-6" d="M119.33,153.27c-3.32-.59-8.14-1.85-13.39-4.71-5.46-2.99-9.24-6.55-11.57-9.11"/>
  <line class="cls-18" x1="127.54" y1="170.6" x2="127.54" y2="137.29"/>
  <line class="cls-18" x1="75.93" y1="128.07" x2="75.93" y2="97.7"/>
  <path class="cls-10" d="M77.07,47.86c-4.39-.12-8.47,2.68-9.36,6.65.1,11.64.21,23.27.31,34.89.18,4.12,3.62,7.34,7.46,7.74,4.72.49,9.88-3.3,9.68-8.55.11-11.73.21-23.44.32-35.17-1.27-3.23-4.66-5.46-8.41-5.57ZM76.61,53.04c2.71,0,4.91,2.21,4.91,4.95s-2.2,4.96-4.91,4.96-4.92-2.21-4.92-4.96,2.21-4.95,4.92-4.95ZM76.61,90.77c-2.71,0-4.92-2.23-4.92-4.96s2.21-4.96,4.92-4.96,4.91,2.23,4.91,4.96-2.2,4.96-4.91,4.96ZM77.01,76.75c-2.71,0-4.92-2.21-4.92-4.95s2.21-4.96,4.92-4.96,4.92,2.23,4.92,4.96-2.21,4.95-4.92,4.95Z"/>
  <path class="cls-17" d="M81.51,85.81c0,2.73-2.2,4.96-4.91,4.96s-4.92-2.23-4.92-4.96,2.21-4.96,4.92-4.96,4.91,2.23,4.91,4.96Z"/>
  <path class="cls-17" d="M81.51,57.99c0,2.75-2.2,4.96-4.91,4.96s-4.92-2.21-4.92-4.96,2.21-4.95,4.92-4.95,4.91,2.21,4.91,4.95Z"/>
  <path class="cls-17" d="M81.93,71.8c0,2.73-2.21,4.95-4.92,4.95s-4.92-2.21-4.92-4.95,2.21-4.96,4.92-4.96,4.92,2.23,4.92,4.96Z"/>
  <path class="cls-4" d="M81.51,57.99c0,2.75-2.2,4.96-4.91,4.96s-4.92-2.21-4.92-4.96,2.21-4.95,4.92-4.95,4.91,2.21,4.91,4.95Z"/>
  <path class="cls-4" d="M81.51,85.81c0,2.73-2.2,4.96-4.91,4.96s-4.92-2.23-4.92-4.96,2.21-4.96,4.92-4.96,4.91,2.23,4.91,4.96Z"/>
  <path class="cls-4" d="M81.93,71.8c0,2.73-2.21,4.95-4.92,4.95s-4.92-2.21-4.92-4.95,2.21-4.96,4.92-4.96,4.92,2.23,4.92,4.96Z"/>
  <path class="cls-10" d="M60.08,54.38h3.98v6.23c0,.62-.8.85-1.13.33l-3.45-5.45c-.31-.48.04-1.12.61-1.12Z"/>
  <path class="cls-10" d="M60.08,68.37h3.98v6.23c0,.62-.8.85-1.13.33l-3.45-5.45c-.31-.48.04-1.12.61-1.12Z"/>
  <path class="cls-10" d="M60.08,82.88h3.98v6.23c0,.62-.8.85-1.13.33l-3.45-5.45c-.31-.48.04-1.12.61-1.12Z"/>
  <path class="cls-10" d="M93.55,53.97h-3.98v6.23c0,.62.8.85,1.13.33l3.45-5.45c.31-.48-.04-1.12-.61-1.12Z"/>
  <path class="cls-10" d="M93.55,68.37h-3.98v6.23c0,.62.8.85,1.13.33l3.45-5.45c.31-.48-.04-1.12-.61-1.12Z"/>
  <path class="cls-10" d="M93.55,82.88h-3.98v6.23c0,.62.8.85,1.13.33l3.45-5.45c.31-.48-.04-1.12-.61-1.12Z"/>
  <line class="cls-10" x1="102.45" y1="45.4" x2="102.45" y2="52.56"/>
  <line class="cls-10" x1="102.45" y1="57.39" x2="102.45" y2="81.24"/>
  <ellipse class="cls-9" cx="102.45" cy="87.32" rx="3.38" ry="6.09"/>
  <path class="cls-22" d="M137.55,42.75h-20.57c-2.29,0-4.14,1.88-4.14,4.19v31.75c0,1.37.65,2.59,1.66,3.34.69.54,1.56.85,2.49.85h20.57c1.55,0,2.9-.86,3.61-2.13.34-.61.54-1.31.54-2.06v-31.75c0-2.32-1.86-4.19-4.14-4.19ZM136.38,75.76c0,1.63-1.3,2.94-2.9,2.94h-11.45c-1.61,0-2.91-1.31-2.91-2.94v-25.96c0-1.62,1.3-2.93,2.91-2.93h11.45c1.6,0,2.9,1.31,2.9,2.93v25.96Z"/>
  <path class="cls-24" d="M136.38,49.8v25.96c0,1.63-1.3,2.94-2.9,2.94h-11.45c-1.61,0-2.91-1.31-2.91-2.94v-25.96c0-1.62,1.3-2.93,2.91-2.93h11.45c1.6,0,2.9,1.31,2.9,2.93Z"/>
  <path class="cls-33" d="M132.37,53.49l-6.74,6.94c-2.08-.9-3.48-3.11-3.11-5.62.31-2.17,2.03-3.96,4.17-4.34,2.49-.45,4.76.92,5.68,3.02Z"/>
  <path class="cls-32" d="M132.78,55.09c.27,2.9-2.12,5.65-5.01,5.72-.77.02-1.49-.13-2.15-.39l6.74-6.94c.22.5.36,1.04.41,1.61Z"/>
  <line class="cls-5" x1="132.8" y1="53.04" x2="132.37" y2="53.49"/>
  <line class="cls-5" x1="125.62" y1="60.43" x2="125.07" y2="60.99"/>
  <path class="cls-38" d="M132.48,67.12l-6.74,6.94c-2.08-.9-3.48-3.11-3.11-5.62.31-2.17,2.03-3.96,4.17-4.34,2.49-.45,4.76.92,5.68,3.02Z"/>
  <path class="cls-28" d="M132.9,68.72c.27,2.9-2.12,5.65-5.01,5.72-.77.02-1.49-.13-2.15-.39l6.74-6.94c.22.5.36,1.04.41,1.61Z"/>
  <line class="cls-5" x1="132.92" y1="66.66" x2="132.48" y2="67.12"/>
  <line class="cls-5" x1="125.74" y1="74.05" x2="125.19" y2="74.62"/>
  <rect class="cls-21" x="123.47" y="85.62" width="7.82" height="5.28"/>
  <path class="cls-21" d="M141.2,80.75c.4-1.21.8-2.41,1.2-3.62.24,1.61.18,2.92.08,3.8-.15,1.3-.4,1.94-.58,2.32-.23.49-.57,1.18-1.33,1.73-.59.42-1.18.58-1.53.64h-22.37c-.62-.15-1.13-.38-1.54-.64-3.59-2.22-3.17-8.15-3.12-8.75.83,1.94,1.66,3.87,2.49,5.81.69.54,1.56.85,2.49.85h20.57c.34,0,.75-.04,1.19-.18,1.42-.43,2.19-1.53,2.46-1.96Z"/>
  <text class="cls-25" transform="translate(101.32 217.12)"><tspan x="0" y="0">VR </tspan><tspan class="cls-37" x="16.34" y="0">T</tspan><tspan x="22.38" y="0">he</tspan><tspan class="cls-34" x="34.2" y="0">r</tspan><tspan class="cls-36" x="38.27" y="0">ap</tspan><tspan x="50.03" y="0">y</tspan></text>
  <line class="cls-15" x1="65.61" y1="213.79" x2="88.32" y2="213.79"/>
</svg>