<?xml version="1.0" encoding="UTF-8"?>
<svg id="Layer_1" data-name="Layer 1" xmlns="http://www.w3.org/2000/svg" viewBox="0 0 50 50">
  <defs>
    <style>
      .cls-1 {
        fill: #fff;
      }
    </style>
  </defs>
  <circle class="cls-1" cx="25" cy="25" r="18.72"/>
  <g id="A8oxkV.tif">
    <path d="M45,23.58v2.81l-.34,2.36c-1.49,7.95-7.94,14.42-15.9,15.89l-2.36.34c-.92-.04-1.9.06-2.81,0C6.8,43.95-1.19,23.21,10.62,11.04,22.62-1.33,43.95,6.51,45,23.58ZM10.93,31.39h19.1c.13,0,.33-.75.34-.91.16-1.38-.54-1.9-1.82-1.99-3.15-.22-6.59.1-9.77-.07-.39.01-.38-.49,0-.48,3.09-.13,6.23.06,9.31-.07,1.88-.08,3.12-.49,3.96-2.29.12-.27.61-1.44.62-1.65.03-.72-.94-2.4-1.41-2.97-3.34-3.99-9.86-2.75-11.49,2.15-2.38-1.59-5.41.39-4.77,3.2-2.59.03-4.63,2.53-4.06,5.08ZM38.91,31.39c.96-3.01-.84-6.3-3.91-7.07-.39-.1-1.6-.36-1.83-.03-.11.15-.46,1.46-.49,1.7-.16,1.34.63,1.78,1.82,1.89.33.03,1.83,0,1.99.12.2.13,0,.42-.2.43-1.28.1-2.62-.07-3.76.61-.79.47-1.55,1.44-1.66,2.36h8.05Z"/>
  </g>
</svg>