<?xml version="1.0" encoding="UTF-8"?>
<svg id="Layer_1" data-name="Layer 1" xmlns="http://www.w3.org/2000/svg" viewBox="0 0 50 50">
  <defs>
    <style>
      .cls-1 {
        fill: #fff;
      }
    </style>
  </defs>
  <circle class="cls-1" cx="25" cy="25" r="18.22"/>
  <g id="Xqvy9a.tif">
    <path d="M45,23.58v2.81l-.34,2.36c-1.49,7.95-7.94,14.42-15.9,15.89l-2.36.34c-.92-.04-1.9.06-2.81,0C6.8,43.95-1.19,23.21,10.62,11.04s33.33-4.53,34.38,12.54ZM16.25,19.36h-5.55v.7h5.55v-.7ZM24.84,20.07c-.21-.26-1.08-.7-1.37-.7h-6.45c0,.13-.05.7.12.7h7.7ZM31.09,19.36c-.2-.14-3.96.1-4.53,0v.7h4.69c.03-.1-.13-.68-.16-.7ZM39.3,19.36h-4.53s-.17.61-.16.7h4.69v-.7ZM16.25,20.85h-5.55v.7h5.55v-.7ZM25.78,21.55c.03-.13-.18-.7-.27-.7h-8.48v.7h8.75ZM31.79,21.55c.03-.12-.21-.7-.27-.7h-4.96v.7h5.24ZM39.3,20.85h-4.96c-.07,0-.3.58-.27.7h5.24v-.7ZM14.68,22.33h-2.34v.78h2.34v-.78ZM21.01,22.33h-2.34v.78h2.34v-.78ZM25.93,22.33h-2.66v.78h2.58s.08-.7.08-.78ZM32.11,22.33c-.19-.12-3.4.1-3.91,0v.78h4.14c-.04-.11-.2-.76-.23-.78ZM37.66,22.33h-3.91s-.19.68-.23.78h4.14v-.78ZM14.68,23.89h-2.34v.7h2.34v-.7ZM25.47,23.89h-6.8v.7h6.29s.57-.64.51-.7ZM32.65,23.89c-.21-.14-3.88.11-4.45,0v.7h2.34s-.05-.55.04-.55c.1.06.17.55.2.55h2.11c-.09-.1-.2-.68-.23-.7ZM37.66,23.89h-4.45s-.14.61-.23.7h2.11s.09-.49.2-.55c.09,0,.01.55.04.55h2.34v-.7ZM14.68,25.38h-2.34v.7h2.34v-.7ZM25.47,26.08c-.01-.14-.54-.7-.59-.7h-6.21v.7h6.8ZM30.54,25.38h-2.34v.7h2.34v-.7ZM34.76,25.38h-3.67c.05.17.14.64.28.69.93-.07,2.06.13,2.96.01.36-.04.32-.41.43-.71ZM37.66,25.38h-2.34v.7h2.34v-.7ZM14.68,26.86h-2.34v.78h2.34v-.78ZM21.01,26.86h-2.34v.78h2.34v-.78ZM25.93,27.64c.04-.13-.06-.78-.2-.78h-2.46v.78h2.66ZM30.54,26.86h-2.34v.78h2.34v-.78ZM34.22,26.86h-2.58c.01.18.13.72.28.77.14.05,1.65.04,1.87.01.36-.04.36-.47.43-.79ZM37.66,26.86h-2.34v.78h2.34v-.78ZM16.25,28.42h-5.55v.7h5.55v-.7ZM25.78,28.42h-8.75v.7h8.48c.09,0,.33-.65.27-.7ZM30.54,28.42h-3.99v.7h3.99v-.7ZM33.67,28.42h-1.48c.01.11.14.67.16.7.07.06.93-.03,1.12.01l.2-.71ZM39.3,28.42h-3.99v.7h3.99v-.7ZM16.25,29.91h-5.55v.7h5.55v-.7ZM24.84,29.91h-7.7c-.16,0-.12.57-.12.7h6.52c.21,0,1.13-.48,1.29-.7ZM30.54,29.91h-3.99v.7h3.99v-.7ZM33.2,29.91h-.47s.16.7.16.7l.31-.7ZM39.3,29.91h-3.99v.7h3.99v-.7Z"/>
  </g>
</svg>