<?xml version="1.0" encoding="UTF-8"?>
<svg id="Layer_1" data-name="Layer 1" xmlns="http://www.w3.org/2000/svg" viewBox="0 0 50 50">
  <defs>
    <style>
      .cls-1 {
        fill: #fff;
      }
    </style>
  </defs>
  <circle class="cls-1" cx="25" cy="25" r="18.72"/>
  <g id="UnD4XW.tif">
    <g>
      <path d="M26.39,5l2.36.34c7.97,1.48,14.4,7.94,15.89,15.91l.34,2.36c-.04.92.06,1.9,0,2.81-1.08,17.57-23.4,25.15-35.07,11.76C-.91,25.75,7.26,6.01,23.58,5h2.81ZM37.17,19.46h-2.03v10.94h2.03v-10.94ZM12.8,19.62h-2.11v2.03h2.11v-2.03ZM24.36,20.01h-1.95v8.09c0,.4.32,1.28.58,1.6.28.35,1.13.78,1.56.78h1.29v-1.8c-.31,0-.95-.04-1.19-.23-.1-.08-.29-.64-.29-.75v-3.09h1.48v-1.6s-.11-.12-.12-.12h-1.37v-2.89ZM21.32,30.4v-4.96c0-.13-.21-.74-.27-.9-.88-2.15-3.77-2.32-5.19-.63-.02-.18.07-1.02-.12-1.02h-1.84v7.5h1.95v-4.34s.18-.55.22-.64c.62-1.29,2.7-1.28,3.14.17.04.12.15.62.15.71v4.1h1.95ZM34.13,27.35v-1.29c0-.51-.65-1.72-1.01-2.11-2.09-2.28-6.35-1-6.71,2.12-.5,4.29,4.57,6.01,7.25,3.04-.29-.13-1.18-1.01-1.38-1.04-.06,0-.57.42-.72.5-1.23.63-3,.29-3.28-1.21h5.86ZM12.73,30.4v-7.39s-.11-.12-.12-.12h-1.84v7.5h1.95ZM38.64,29.01c-.89.11-.78,1.53.13,1.47.98-.07.83-1.59-.13-1.47Z"/>
      <path d="M32.25,25.95h-3.98c.36-1.99,3.61-1.98,3.98,0Z"/>
      <path d="M38.56,29.17c.87-.19.93.95.42,1.12-.92.31-1.16-.96-.42-1.12ZM39.04,29.39c-.04-.06-.58-.12-.62-.08v.86s.2-.31.2-.31l.43.31c-.32-.25.11-.61,0-.77Z"/>
    </g>
  </g>
</svg>