<?xml version="1.0" encoding="UTF-8"?>
<svg id="Layer_1" data-name="Layer 1" xmlns="http://www.w3.org/2000/svg" viewBox="0 0 50 50">
  <defs>
    <style>
      .cls-1 {
        fill: #fff;
      }
    </style>
  </defs>
  <circle class="cls-1" cx="25" cy="25" r="17.86"/>
  <g id="_7v78Cz.tif" data-name="7v78Cz.tif">
    <g>
      <path d="M21.63,22.82c.01,1.61,0,3.23,0,4.85-1.1-.34-2.04-1.29-2.59-2.29-.11-.2-.48-.92-.46-1.1.03-.3,1.03-.98,1.31-1.11.56-.27,1.11-.39,1.73-.34Z"/>
      <path d="M26.39,5l2.36.34c7.97,1.48,14.4,7.94,15.89,15.91l.34,2.36c-.04.92.06,1.9,0,2.81-1.08,17.57-23.4,25.15-35.07,11.76C-.91,25.75,7.26,6.01,23.58,5h2.81ZM21.63,30.4c2.3.29,4.74-.35,6.79-1.38,1.79-.9,3.34-2.2,4.89-3.45l3.01,1.81c-1.9,1.5-4.27,2.48-6.58,3.19-2.61.8-5.35,1.34-8.1,1.23v2.03h16.71v-17.66h-16.79v2.31s-.09.09-.13.11c-3.7.37-7.06,2.48-9.78,4.91,1.58,4.19,5.3,7.99,9.98,8.24,0-.44,0-.89,0-1.33-3.18-.4-5.61-2.76-6.86-5.6-.39-.88-.57-.86.07-1.63,1.58-1.88,4.28-3.13,6.71-3.32v1.56h1.6c.52,0,1.74.54,2.22.83.3.18,1.42,1.02,1.53,1.28.04.09-.06.13-.12.2-.4.41-1.52,1.35-1.99,1.68-.07.05-.08.11-.2.08-.62-1.32-1.38-2.52-2.97-2.66,0-.44,0-.89,0-1.33-1.07.02-2.24.43-3.18.92-.35.18-2.05,1.31-2.05,1.61,0,.09.33.86.4,1.01.91,1.95,2.65,3.57,4.83,3.88,0,.49,0,.99,0,1.49Z"/>
      <path d="M21.63,28.92c0-.42,0-.83,0-1.25.15.05.29.1.45.13,2.88.55,5.55-2.13,7.2-4.17-1.02-1.4-2.64-2.68-4.27-3.29-.36-.14-1.44-.49-1.78-.49h-1.6v-1.33c4.11-.26,7.89,1.91,10.46,4.96-2.63,2.92-6.23,6.04-10.46,5.43Z"/>
    </g>
  </g>
</svg>