<?xml version="1.0" encoding="UTF-8"?>
<svg id="Layer_1" data-name="Layer 1" xmlns="http://www.w3.org/2000/svg" viewBox="0 0 50 50">
  <defs>
    <style>
      .cls-1 {
        fill: #fff;
      }
    </style>
  </defs>
  <circle class="cls-1" cx="25" cy="25" r="16.42"/>
  <g id="_9q8KSJ.tif" data-name="9q8KSJ.tif">
    <g>
      <path d="M26.39,5l2.36.34c7.97,1.48,14.4,7.94,15.89,15.91l.34,2.36c-.04.92.06,1.9,0,2.81-1.08,17.57-23.4,25.15-35.07,11.76C-.91,25.75,7.26,6.01,23.58,5h2.81ZM22.63,9.71c-3.02.27-5.7,2.46-6.62,5.33-5.23,1.09-7.77,7.1-4.95,11.68.12.2.78.98.8,1.07.02.12-.24.94-.27,1.18-.75,5.19,3.25,9.17,8.38,8.93.22-.01.76-.18.89-.12.11.05.51.53.67.66,4.36,3.6,10.63,1.8,12.46-3.48,5.22-1.09,7.77-7.1,4.95-11.68-.13-.22-.78-.97-.8-1.08-.02-.1.24-.95.28-1.18.81-5.16-3.31-9.17-8.38-8.93-.22.01-.7.17-.85.14-.08-.02-.97-.9-1.19-1.06-1.53-1.13-3.45-1.64-5.35-1.47Z"/>
      <path d="M20.3,26.1l-2.53-1.41-.13-.19c.14-2.45-.18-5.08,0-7.5.35-4.61,5.82-6.95,9.37-3.99l-6.32,3.68c-.11.05-.4.48-.4.54v8.87Z"/>
      <path d="M29.67,23.91l2.53,1.41.13.19v7.5c-.36,4.6-5.82,6.95-9.37,3.99l6.32-3.68c.11-.05.4-.48.4-.54v-8.87Z"/>
      <path d="M28.27,28.6v3.05c-.11.01-.22.06-.31.11-1.94,1.13-4.36,2.78-6.35,3.65-3.97,1.74-8.37-1.27-8.1-5.61.01-.19.02-.41.12-.58l6.5,3.73c.48.1.77-.15,1.17-.36,2.37-1.23,4.58-2.81,6.98-4Z"/>
      <path d="M21.71,18.37c.11-.01.22-.06.31-.11,1.93-1.13,4.36-2.78,6.35-3.65,4.23-1.86,8.8,1.66,7.98,6.19l-6.5-3.73c-.46-.12-.79.17-1.17.36l-6.98,4v-3.05Z"/>
      <path d="M34.36,32.75v-7.31c0-.4-.49-.74-.79-.93-2.21-1.44-4.75-2.61-7-4.02-.04-.03-.22-.12-.18-.17l2.66-1.45,6.61,3.86c3.75,2.69,2.99,8.45-1.31,10.02Z"/>
      <path d="M15.62,17.27v7.31c0,.43.48.73.79.93,2.19,1.44,4.76,2.61,7,4.02.04.03.22.12.18.17l-2.66,1.45-6.66-3.89c-3.69-2.68-2.91-8.46,1.35-9.99Z"/>
      <path d="M24.96,21.19l3.23,1.82c.08.06.07.14.08.23.04.37.06,3.56-.04,3.72l-3.22,1.86-3.23-1.82c-.08-.06-.07-.14-.08-.23-.04-.37-.06-3.56.04-3.72l3.22-1.86Z"/>
    </g>
  </g>
</svg>