<?xml version="1.0" encoding="UTF-8"?>
<svg id="Layer_1" data-name="Layer 1" xmlns="http://www.w3.org/2000/svg" viewBox="0 0 50 50">
  <defs>
    <style>
      .cls-1 {
        fill: #fff;
      }
    </style>
  </defs>
  <circle class="cls-1" cx="25" cy="25" r="17.86"/>
  <g id="_7kwmxP.tif" data-name="7kwmxP.tif">
    <g>
      <path d="M26.39,5l2.36.34c7.97,1.48,14.4,7.94,15.89,15.91l.34,2.36c-.04.92.06,1.9,0,2.81-1.08,17.57-23.4,25.15-35.07,11.76C-.91,25.75,7.26,6.01,23.58,5h2.81ZM15.43,23.63c-.73-.73-2.62-.66-3.61-.58-2.62.21-2.5,3.54-.45,3.89.54.09,2.85.08,3.32-.08,1.35-.45,1.73-2.24.73-3.24ZM19.87,23.06c-1.01-.14-2.35.11-3.4,0v3.91h.7v-3.2h2.62s.35.19.39.24c.27.32.02,1.01-.31,1.01h-2.23c-.04.15.06.15.13.22.31.28,1.68,1.55,1.93,1.66.35.15.76.04,1.14.07l-1.41-1.21c1.83.2,2.17-2.45.43-2.7ZM24.91,25.63h-1.87c0,.15.25.57.36.61.43.15,1.46-.11,1.92.03.24.07.4.64.46.68.12.08.73-.03.92.01l-2.35-3.7c-.22-.29-.7-.29-.91,0l-2.35,3.7h.92s1.81-3.05,1.81-3.05c.09-.07,1.06,1.53,1.09,1.72ZM30.92,23.06h-2.93s-.51.16-.59.2c-1.74.78-1.34,3.46.51,3.71.52.07,1.98.07,2.5.01.29-.04.48-.44.58-.71h-3.09s-.29-.16-.35-.2c-.98-.66-.57-2.14.59-2.29.62-.09,1.82.13,2.32-.02.14-.04.49-.65.44-.69ZM32.1,23.06h-.7v3.71c0,.1.24.19.35.2,1.03.14,2.36-.11,3.42,0,.05-.01.42-.58.37-.7h-3.44v-3.2ZM40.06,23.06h-2.85c-.16,0-.78.28-.94.39-1.37,1-.81,3.29.87,3.51.27.04,2.48.06,2.59,0,.03-.02.37-.58.33-.69h-3.01c-.23,0-.78-.6-.82-.86h3.16c.06,0,.39-.6.43-.7h-3.59c.11-.53.62-.88,1.13-.94.56-.06,1.84.13,2.25-.01.14-.04.33-.55.44-.69Z"/>
      <path d="M14.96,24.1c.68.63.4,1.96-.5,2.14-.4.08-2.44.08-2.85,0-1.24-.23-1.22-2.19.02-2.45.47-.1,2.03-.09,2.54-.03.26.03.6.17.79.34Z"/>
    </g>
  </g>
</svg>