<?xml version="1.0" encoding="UTF-8"?>
<svg id="Layer_1" data-name="Layer 1" xmlns="http://www.w3.org/2000/svg" viewBox="0 0 50 50">
  <defs>
    <style>
      .cls-1 {
        fill: #fff;
      }
    </style>
  </defs>
  <circle class="cls-1" cx="25" cy="25" r="17.86"/>
  <g id="quHl4Q.tif">
    <g>
      <path d="M45,23.58v2.81l-.34,2.36c-1.49,7.95-7.94,14.42-15.9,15.89l-2.36.34c-.92-.04-1.9.06-2.81,0C6.8,43.95-1.19,23.21,10.62,11.04s33.33-4.53,34.38,12.54ZM24.92,14.68s-.14-.53-.22-.68c-.25-.49-.89-1.36-1.4-1.57-.11-.04-.27,0-.41-.06s-.31-.35-.53-.41-.44,0-.67-.04c-.47-.1-.56-.1-1.02-.15-.18-.02-.38-.22-.65-.22s-.38.15-.55.16c-.22.02-.46-.12-.77-.07-.35.06-.95.35-1.27.45-.21.06-.5,0-.79.07-.27.07-.38.26-.54.32-.24.08-.62.01-.84.25-.34.38-.04.67-.06.96-.02.16-.19.3-.17.53.02.26.2.39.23.53.03.15-.07.31,0,.56.06.22.3.39.34.52.16.56.22.79.48,1.32s.52.46.68.68c.08.11.08.35.22.52.18.22.5.24.65.36.12.09.13.28.29.42.18.16.44.2.65.28-1.44.86-2.18,1.84-2.42,3.52-.04.27.05.55-.04.82s-.82.76-1.06,1.05c-1.03,1.26-1.33,2.97-.64,4.47.19.42.63.82.77,1.18.87,2.2.53,3.75,2.84,5.2,1.34.84,2.78,1.53,4.06,2.42,1.95,1.36,3.88,1.32,5.81-.03,1.26-.88,2.7-1.56,4.02-2.39,2.35-1.47,1.93-3.02,2.84-5.2.14-.35.54-.7.72-1.07.75-1.52.45-3.34-.63-4.61-.24-.28-.94-.75-1.02-1.01s0-.56-.04-.82c-.24-1.68-.99-2.66-2.42-3.52.22-.09.47-.12.65-.28.16-.14.17-.32.29-.42.15-.12.47-.14.65-.36.14-.17.14-.41.22-.52.15-.2.44-.17.66-.63.1-.22.43-.74.45-.8.07-.21,0-.39.06-.57.04-.13.28-.3.34-.52.03-.12.2-1.22.19-1.29-.02-.13-.12-.23-.13-.33-.06-.58.36-.88-.49-1.17-.33-.11-.71-.31-.96-.37-.49-.13-1.15-.18-1.65-.31-.13-.03-.21-.18-.41-.21-.31-.05-.56.09-.77.07-.17-.01-.29-.16-.55-.16s-.47.2-.65.22c-.46.06-.54.06-1.02.15-.24.05-.49-.02-.73.05-.22.07-.33.33-.47.39-.2.09-.37,0-.62.16-.73.45-1.04,1.33-1.4,2.03-.03.06-.03.25-.16.11Z"/>
      <path d="M34.22,13.19c-.19.3-.41.62-.47.98,0,.12.56-.08.47.16-.11.28-.62.51-.7.71-.1.23.49.04.55.15l-.78.78.39.15c-.12.11-.23.24-.35.35-.29.25-.92.46-.12.51-.29.31-.68.55-1.09.67l.39.16c.13.1-1.11.59-1.25.55l.31.31c-.21.14-1.28.11-1.33.16-.16.16.21.28.23.39-1.06.04-2.5-.17-3.16-1.1-.09-.12-.3-.51-.27-.64.07-.27,1.56-1.36,1.87-1.57l2.73-1.61c-1.27.38-2.54.99-3.67,1.69-.25.16-1.31.97-1.45.97s-.49-.3-.59-.43c-.7-.9-.03-2.24.59-3,.57-.7.38,0,.54,0l.86-.86c.07.97.45-.02.86-.16l.16.39.86-.55c.26-.03-.16.44.15.39s.73-.47,1.13-.39c0,.07-.49.43-.19.47.18.02.8-.38,1.05-.2l-.16.35c.48-.05.92-.23,1.41-.16l-.23.39h1.25Z"/>
      <path d="M17.1,13.19l-.23-.39c.49-.07.93.11,1.41.16l-.16-.39,1.09.23c.05-.22-.15-.31-.23-.47.4-.06.82.35,1.13.39s-.1-.42.15-.39l.86.55c.17-.12.02-.33.08-.47l.78.7.16-.47.86.86c.14-.05.05-.38.23-.31.09.04.41.48.49.6.51.73,1.03,1.84.44,2.67-.1.14-.46.47-.62.47-.12,0-1.69-1.12-1.99-1.29-.96-.55-2.07-1.03-3.13-1.36l2.1,1.22c.42.26,2.41,1.61,2.5,1.96.03.13-.18.52-.27.64-.66.92-2.11,1.13-3.16,1.1.02-.11.39-.23.23-.39-.05-.05-1.12-.02-1.33-.16l.31-.31c-.14.04-1.38-.45-1.25-.55l.39-.16c-.2-.06-1-.44-1.09-.55-.21-.25.6-.06.39-.31-.1-.12-.75-.39-.86-.67l.39-.15-.78-.78c1.01-.05.42-.19.08-.55-.63-.66.23-.34.23-.47-.06-.36-.28-.67-.47-.98h1.25Z"/>
      <path d="M27.63,22.74c3.75-.63,5.63,4.94,2.5,6.09-2.63.96-5.25-2.13-4.23-4.62.26-.64,1.05-1.35,1.74-1.47Z"/>
      <path d="M21.31,22.9c4.75-.69,3.71,6.78-.79,6.22-3.26-.4-2.38-5.76.79-6.22Z"/>
      <path d="M24.67,28.6c3-.33,4.92,3.12,2.44,5.1-1.49,1.19-4.1.76-4.94-1-.91-1.93.49-3.87,2.5-4.09Z"/>
      <path d="M31.85,29.69c1.33-.18,1.51,1.44,1.42,2.44-.15,1.77-2.1,3.61-3.93,3.3-1.56-.27-.75-2.57-.23-3.47.47-.8,1.78-2.14,2.73-2.27Z"/>
      <path d="M17.47,30.16c1.58-.32,3.37,1.59,3.77,2.99.95,3.36-2.66,2.41-3.86.65-.54-.79-1.24-3.38.09-3.65Z"/>
      <path d="M24.51,19.31c.97-.13,2.14.18,2.87.84.86.77.73,1.61-.33,2.09-1.16.52-3.24.49-4.28-.3-1.59-1.19.55-2.47,1.74-2.64Z"/>
      <path d="M24.28,35.32c.84-.09,3.19-.06,3.73.68s-1.04,1.69-1.61,1.92c-1.16.46-2.18.35-3.25-.26-2.32-1.31-.63-2.15,1.13-2.33Z"/>
      <path d="M33.1,24.53c.25-.02,1.07.78,1.23,1,.43.6.65,1.48.58,2.21-.05.56-.59,2.28-1.34,2.07-.58-.17-1.03-2.58-1.07-3.15-.03-.48-.08-2.07.6-2.13Z"/>
      <path d="M16.85,24.61c.75-.12.68,1.78.65,2.21-.04.62-.45,2.69-.97,3.01-.64.4-1.24-1.08-1.35-1.55-.2-.87-.06-1.76.41-2.51.19-.3.92-1.11,1.26-1.17Z"/>
      <path d="M28.36,19.99c2.01-.41,4.08.58,4.45,2.7.02.14.1.91.05.97-.07.09-.21.08-.31.07-.61-.07-2.95-2.05-3.45-2.58-.14-.15-.88-1.02-.74-1.17Z"/>
      <path d="M21.79,19.91c.08.08-.35.68-.43.78-.53.66-2.95,2.77-3.71,2.94-.52.11-.42-.3-.39-.7.22-2.29,2.38-3.47,4.52-3.02Z"/>
    </g>
  </g>
</svg>