<?xml version="1.0" encoding="UTF-8"?>
<svg id="Layer_1" data-name="Layer 1" xmlns="http://www.w3.org/2000/svg" viewBox="0 0 50 50">
  <defs>
    <style>
      .cls-1 {
        fill: #fff;
      }
    </style>
  </defs>
  <circle class="cls-1" cx="25" cy="25" r="18.67"/>
  <g id="JM9XP8.tif">
    <path d="M26.42,45h-2.81l-2.36-.34c-7.95-1.49-14.41-7.94-15.89-15.9l-.34-2.36c.04-.92-.06-1.9,0-2.81C6.07,6.55,27.26-1.3,39.31,10.96c11.91,12.13,3.95,33-12.89,34.04ZM11.66,24.06s.93-.03,1.09,0c.37-1.89-3.05-1.93-3.02-.13.02,1.07,1.2,1.17,1.77,1.73.79.78-.43,1.24-.61.61-.04-.14,0-.55-.02-.57-.04-.04-.96-.02-1.04.01-.24.08-.11.66-.03.87.38,1,2.57,1.05,2.97.03.3-.75.08-1.3-.54-1.76-.25-.19-1.17-.6-1.28-.77-.25-.41.05-.77.5-.63.32.1.17.57.21.61ZM26.96,24.06c.43-1.66-2.54-1.79-2.89-.67-.49,1.55.93,1.56,1.64,2.27s-.3,1.23-.57.65c-.09-.19-.04-.59-.06-.61-.04-.05-1.13-.09-1.18.2-.06.44.24,1.04.65,1.22,1.29.58,2.73.11,2.47-1.53-.12-.79-1.74-1.18-1.9-1.55s-.02-.64.38-.61c.52.03.31.63.35.63h1.09ZM40.32,24.21c.35-1.88-2.83-2.11-3.11-.49-.08.51-.06,1.71-.02,2.25.08,1.08.91,1.39,1.9,1.27.52-.07,1.23-.43,1.23-1.03v-1.52h-1.56c.02.12-.03.68,0,.7.03.03.44-.03.47,0,.02.02.01.56,0,.66-.09.56-.8.53-.92.15-.07-.22-.05-1.95-.02-2.25.04-.33.2-.54.55-.48.52.1.34.75.39.75h1.09ZM13.61,27.18h1.17l.59-3.91.59,3.91h1.17l-.83-4.38h-1.9s-.79,4.38-.79,4.38ZM19.93,22.81h-1.8l-.08,4.38c.18-.02,1.09.08,1.09-.12v-3.71l.72,3.7c.1.26.89.09,1.15.13l.71-3.75.08,3.75h1.09l-.08-4.38h-1.76l-.62,3.28-.51-3.28ZM29.23,22.81h-1.17v3.09s.08.55.09.61c.24.96,2.21,1,2.75.36.08-.1.28-.48.28-.58v-3.48h-1.09v3.32c0,.42-.86.44-.86.16v-3.48ZM33.95,22.81h-1.6v4.3h1.09l-.04-3.52,1.05,3.52h1.56v-4.3h-1.02v3.28l-1.05-3.28Z"/>
  </g>
</svg>