<?xml version="1.0" encoding="UTF-8"?>
<svg id="Layer_1" data-name="Layer 1" xmlns="http://www.w3.org/2000/svg" viewBox="0 0 50 50">
  <defs>
    <style>
      .cls-1 {
        fill: #fff;
      }
    </style>
  </defs>
  <circle class="cls-1" cx="25" cy="25" r="18.72"/>
  <g id="swNErt.tif">
    <g>
      <path d="M45,23.58v2.81l-.34,2.36c-1.49,7.95-7.94,14.42-15.9,15.89l-2.36.34c-.92-.04-1.9.06-2.81,0C6.8,43.95-1.19,23.21,10.62,11.04,22.62-1.33,43.95,6.51,45,23.58ZM9.99,25.61v1.87c.39-.01.82.14.82-.39,1.23.52,2.72.7,3.99.24,1.58-.57,1.62-2.22.03-2.77-.74-.26-3.32-.37-3.63-.66-.22-.21-.05-.48.17-.62.71-.45,2.65-.27,3.31.27.39.31.21.83.94.66v-1.64c-.18.03-.42-.04-.58,0-.09.02-.02.21-.04.24-.08.07-.92-.27-1.12-.32-1.09-.26-3.7-.23-4,1.18-.45,2.12,3.31,1.75,4.52,2.13.4.22.43.6.04.85-.79.52-3.17.28-3.64-.61-.08-.15-.08-.4-.09-.42-.04-.04-.57.02-.7,0ZM20.06,22.35c-1.26.13-2.8.88-2.95,2.28-.44,3.98,7.24,3.99,7.11.24-.07-2.05-2.48-2.69-4.16-2.52ZM27.3,22.64h-2.38v.55c.56.02.89-.16.94.5.08.92-.05,1.95-.02,2.88-.09.32-.59.19-.84.21v.55h2.74v-.55c-.17-.02-.94.07-.94-.12v-2.62l3.57,3.19c.33.17.76.06,1.12.09l-.08-3.86c.08-.42.63-.24.94-.28v-.55h-2.81v.55c.17,0,.94-.05.94.19v1.87s.17.21.04.27l-3.2-2.89ZM36.17,22.64h-3.28v.55c.39-.02.74-.03,1.05.23l1.82,2.09c0,.87.33,1.46-.84,1.27v.55h3.28v-.55c-1.23.17-.93-.31-.92-1.27.47-.42,1.69-2.23,2.22-2.32.21-.03.45.01.66,0v-.55h-2.66c0,.54-.12.6.47.55.15.14-1.06,1.51-1.2,1.48l-1.14-1.36c.48-.28.63.13.55-.66Z"/>
      <path d="M20.21,23.05c1.55-.23,2.6.71,2.44,2.29-.17,1.68-2.65,2.15-3.64.9-.92-1.15-.3-2.96,1.19-3.18Z"/>
    </g>
  </g>
</svg>