<?xml version="1.0" encoding="UTF-8"?>
<svg id="Layer_1" data-name="Layer 1" xmlns="http://www.w3.org/2000/svg" viewBox="0 0 50 50">
  <defs>
    <style>
      .cls-1 {
        fill: #fff;
      }
    </style>
  </defs>
  <circle class="cls-1" cx="25" cy="25" r="17.86"/>
  <g id="K16wmg.tif">
    <g>
      <path d="M45,23.58v2.81l-.34,2.36c-1.49,7.95-7.94,14.42-15.9,15.89l-2.36.34c-.92-.04-1.9.06-2.81,0C6.8,43.95-1.19,23.21,10.62,11.04s33.33-4.53,34.38,12.54ZM12.26,27.02l4.02-4.06c.09-.5-.15-1.14-.66-1.29-.06-.02-.56-.11-.59-.11h-5.2c-.13.58.36,1.41.98,1.41h3.4c-.4.6-4.04,3.87-4.06,4.17-.02.39.25,1,.64,1.16.16.06.61.12.8.14,1.62.13,3.4-.09,5.04,0,.13-.58-.36-1.41-.98-1.41h-3.4ZM19.59,21.57c-4.76.18-4.06,7.67.81,6.76,3.98-.74,3.36-6.91-.81-6.76ZM26.78,21.57c-4.44.11-4.31,6.88.12,6.85,4.48-.04,4.41-6.96-.12-6.85ZM40.16,28.42v-4.49c0-.95-1.14-2.05-2.03-2.27-1.05-.26-2,.11-2.77.82-.72-.77-1.75-1.08-2.77-.8-.19.05-.72.34-.76.34-.13,0-.91-.54-1.21-.47v6.87c.66-.08,1.24-.21,1.33-.98.14-1.24-.59-4.41,1.29-4.5,2.59-.11.73,4.07,1.79,5.13.19.19,1.07.44,1.07.22v-4.3c0-.08.26-.58.35-.67.69-.73,2.09-.4,2.29.61.22,1.13-.11,2.75.13,3.69.16.61.76.71,1.29.78Z"/>
      <path d="M26.46,22.97c1.79-.31,3.15,1.66,2.09,3.18-1.24,1.77-3.99.65-3.7-1.51.1-.74.88-1.54,1.61-1.67Z"/>
      <path d="M19.35,22.98c3.09-.44,3.19,4.3.14,4.04-2.33-.2-2.41-3.71-.14-4.04Z"/>
    </g>
  </g>
</svg>